#!OML:ASF F:\VICON\USERDATA\INSTALL\rory3\rory3.ASF
:FULLY-SPECIFIED
:DEGREES
28
root 0.5774829113339791 18.85445794793774 -3.5581670988532235 1.7832793962875755 3.4671308773527705 -0.7999970396663303
lfemur 2.1421605936256185 -0.2899534852807646 -26.40413880880861
ltibia 34.96454749321319
lfoot -2.627627209179698 -8.039420031119738
ltoes -12.69385812986098
rfemur -21.26791022642611 2.148360440475778 26.942406273390425
rtibia 100.37469573072337
rfoot 17.993443737778442 -7.664759710905859
rtoes 3.3123631435439522
lowerback 15.803107063142681 0.21052748822234113 -0.3419669614039811
upperback -0.6470859949528005 0.23443680527326882 0.2344221360212999
thorax -9.250138493320163 0.4962980858886775 0.7114406372079343
lowerneck -17.708806094107036 -4.1123506302604405 -2.3610318065368396
upperneck 8.570247250467775 -5.904338808661354 4.164661351202107
head 6.168382473791826 -2.2883375854391064 1.1670078433294324
lclavicle -1.542939989809254e-15 -3.305565263708738e-15
lhumerus -40.90776014632477 -11.361630870628803 89.11658020237167
lradius 124.06658632580618
lwrist 32.06708603650292
lhand -24.056554318519474 4.167416467758264
lfingers 7.12502
lthumb 2.2063177084336214 34.018567560234786
rclavicle -1.5439275029929606e-15 -3.2959045265293265e-15
rhumerus -66.43636193229304 -0.21995146476184324 -85.22388033248012
rradius 114.37443106287603
rwrist -21.088443788546105
rhand -18.493038909760337 40.084517826776576
rfingers 7.12502
rthumb 7.587353311298792 10.293856854138241
29
root 0.5603440260883035 18.937633854479238 -3.037973073328148 1.7522585913979194 3.6993374849563643 -1.1191537357684627
lfemur 4.218868099617637 0.3300237085613432 -25.799175503180738
ltibia 33.227283171884025
lfoot -1.511376265367554 -9.038491589978577
ltoes -11.946992829928833
rfemur -23.5425366321335 2.9020902174706054 27.00215826917082
rtibia 86.56569839929341
rfoot 18.41874662636578 -6.193376917120848
rtoes -2.0713605277787908
lowerback 15.543557759858613 0.0017023663528934474 -0.7074575902472828
upperback -0.5169014602151205 -0.09668166085165475 0.47449620126538683
thorax -8.999223439152708 0.2950169479054104 1.0643845206213145
lowerneck -17.798182918773186 -3.8902738670047716 -2.395417473141699
upperneck 8.29853616595028 -5.946298279251523 4.334544397104537
head 6.131634675408439 -2.2217737151326333 1.222426867212934
lclavicle -1.5429273228611994e-15 -3.3055990020514952e-15
lhumerus -38.174811253106654 -11.467692480356432 89.0072678831371
lradius 123.9947952767973
lwrist 32.14809378200274
lhand -24.279663111394775 3.8861152281360405
lfingers 7.12502
lthumb 2.0178796367478813 33.77324395147527
rclavicle -1.5439204849544653e-15 -3.2959000551846307e-15
rhumerus -66.45521410227941 1.5215193825775088 -86.10086942739034
rradius 111.91329971054493
rwrist -20.331879615894337
rhand -18.50185610440176 39.430024295251414
rfingers 7.12502
rthumb 7.7167614334874886 9.235104500052358
30
root 0.5459403654590108 19.006399904133907 -2.6683443726832063 1.8085346287277195 3.548139530971308 -1.4060523361272317
lfemur 5.671912288741286 0.7675443860772057 -25.160820279842074
ltibia 31.76280820528351
lfoot 1.9459262365496812 -10.059987449162648
ltoes -11.765792475614766
rfemur -24.9850701851814 3.872223672683289 26.88100435464683
rtibia 69.21981995202317
rfoot 17.68431720582352 -5.557955226578539
rtoes -6.230703266973588
lowerback 15.39327177794563 -0.1545723213391369 -1.0280928253271666
upperback -0.4618222620137828 -0.44127146090679403 0.6960159039076319
thorax -9.03489104348046 0.12226117184269425 1.4293935006402907
lowerneck -17.92689017115149 -3.684861317706351 -2.4370221235618055
upperneck 8.51860579201322 -5.877422861584221 4.443451956337159
head 6.136955276896854 -2.1627776882208125 1.2534774340015513
lclavicle -1.5429245056569115e-15 -3.3056598797029467e-15
lhumerus -36.789644526355524 -11.285071857018595 88.89341216953251
lradius 123.36539022790855
lwrist 31.933847006132016
lhand -24.19720634477858 4.002379823950407
lfingers 7.12502
lthumb 2.064025352054326 33.86029905644228
rclavicle -1.5439340066171892e-15 -3.2959095625350594e-15
rhumerus -66.1557626482344 1.7808739870959354 -86.63051322783538
rradius 109.42739915100388
rwrist -21.06846584305659
rhand -18.304786631026094 40.320394783228835
rfingers 7.12502
rthumb 7.998433857339279 10.222354259058227
31
root 0.5365432071358712 19.0515070008893 -2.192823226476383 1.9793672651864114 3.2366227611851603 -1.6144899555489611
lfemur 6.583714832540085 1.1708605894782247 -24.60407404100684
ltibia 30.80955943168858
lfoot 7.142811268506307 -11.726263614660882
ltoes -11.323134599999149
rfemur -25.72733908367876 5.142748732134303 26.68077148793522
rtibia 50.427984286551876
rfoot 16.98556673417835 -5.251462563891604
rtoes -8.16371728165677
lowerback 15.18829794143655 -0.22973488256872776 -1.2219075580862566
upperback -0.5382797574803202 -0.7591929170531335 0.8659584835458644
thorax -9.079550417730413 -0.020860256242352215 1.9248826971016193
lowerneck -18.112429766405015 -3.540503674380434 -2.503019744617299
upperneck 9.017857514636702 -5.576951117382796 4.376762457388404
head 6.11201804449159 -2.1223515946486526 1.2667943792713907
lclavicle -1.5428929240396121e-15 -3.3056161350131982e-15
lhumerus -36.427459403628475 -11.21112435930616 89.27893464662704
lradius 122.34798889177142
lwrist 31.589743912148695
lhand -24.294884309179075 3.877003656798198
lfingers 7.12502
lthumb 1.976565693995979 33.744964225046594
rclavicle -1.5439211713208293e-15 -3.295900391292385e-15
rhumerus -64.78245622049543 1.9313976112604454 -87.46107381304701
rradius 106.71038412741491
rwrist -22.383771914582134
rhand -18.36161262527196 40.11863226556174
rfingers 7.12502
rthumb 7.887916834329776 10.200172778050495
32
root 0.5301109399876622 19.04680869240159 -2.0423293343959195 2.244363884771996 2.6824150213220554 -1.75048415610871
lfemur 6.894666151441715 1.3693709725972787 -24.09519882665978
ltibia 29.569007443822628
lfoot 12.909858586810437 -13.350087481214103
ltoes -10.301564493667556
rfemur -26.021701569630757 5.579797641749451 26.593962500786297
rtibia 34.05479660618438
rfoot 16.722436942712676 -4.872841126885421
rtoes -3.279684806457267
lowerback 14.872773164017127 -0.30102949273788904 -1.2749382613297757
upperback -0.644974499177253 -1.0365307916909123 1.0616097138550131
thorax -9.134903987806078 -0.1512271513848168 2.236146928272241
lowerneck -18.342882971781457 -3.4788861700823923 -2.5367538798426454
upperneck 9.484361682774813 -5.154205302770719 4.248839664120395
head 6.175589829758977 -2.1017199543526126 1.2614921804469474
lclavicle -1.5429337071302553e-15 -3.305632845079223e-15
lhumerus -36.62389551313096 -10.912766655528404 89.93019863462558
lradius 121.15289869361187
lwrist 31.3776160909541
lhand -24.24592270711446 4.096947127867948
lfingers 7.12502
lthumb 2.02040470072735 33.91873827227065
rclavicle -1.5439378377500602e-15 -3.2959123166255255e-15
rhumerus -62.486001818279576 2.6269948354002395 -88.80028490652671
rradius 103.54144777359782
rwrist -23.0181364802133
rhand -18.24812355429551 40.21866079432373
rfingers 7.12502
rthumb 8.057370538507332 9.995519251054294
33
root 0.5298067635964414 19.01743278962867 -1.489790155205359 2.547187090587399 2.0837569299240584 -1.64956239567963
lfemur 6.251594755822165 1.4776488132751036 -23.405982721889547
ltibia 28.155695937212172
lfoot 14.601516522291082 -14.204306965616517
ltoes -9.382656474561028
rfemur -26.408329211510562 6.272142369844324 26.331843411647935
rtibia 26.057058636091433
rfoot 16.294587454508203 -4.403414163721316
rtoes 4.409006260569848
lowerback 14.529608108537602 -0.38493330138426873 -1.2577479461917962
upperback -0.667631905710465 -1.1422912576833784 1.2939780695117358
thorax -9.011396890193595 -0.21693448881695554 2.3929272545278626
lowerneck -18.632610020184607 -3.528761681185142 -2.5744361255402937
upperneck 9.390726491150982 -4.561506655026285 4.033191317305062
head 6.175390316549106 -2.060683564108813 1.2506350628529934
lclavicle -1.54295180266773e-15 -3.3056782994215445e-15
lhumerus -37.46330340444567 -10.410072122633679 90.55429215364664
lradius 119.8727435080999
lwrist 31.367073491101014
lhand -24.388789351116316 3.9927304584408607
lfingers 7.12502
lthumb 1.912836078024763 33.83421233765512
rclavicle -1.543937925944457e-15 -3.2959125384201343e-15
rhumerus -59.97994717601966 2.8155480462961027 -89.71029646124876
rradius 100.21456291919343
rwrist -24.223779429309943
rhand -18.04493349317466 40.35364120187656
rfingers 7.12502
rthumb 8.3462667791053 10.129900646861268
